<svg width="16" height="16" viewBox="0 0 16 16" fill="none" xmlns="http://www.w3.org/2000/svg">
<path fill-rule="evenodd" clip-rule="evenodd" d="M10.6673 10.6667C10.6673 11.0334 10.3673 11.3334 10.0007 11.3334C9.63398 11.3334 9.33398 11.0334 9.33398 10.6667V8.00004C9.33398 7.63337 9.63398 7.33337 10.0007 7.33337C10.3673 7.33337 10.6673 7.63337 10.6673 8.00004V10.6667ZM6.66732 2.88537C6.66732 2.78204 6.80998 2.66671 7.00065 2.66671H9.00065C9.19132 2.66671 9.33398 2.78204 9.33398 2.88537V4.00004H6.66732V2.88537ZM6.66732 10.6667C6.66732 11.0334 6.36732 11.3334 6.00065 11.3334C5.63398 11.3334 5.33398 11.0334 5.33398 10.6667V8.00004C5.33398 7.63337 5.63398 7.33337 6.00065 7.33337C6.36732 7.33337 6.66732 7.63337 6.66732 8.00004V10.6667ZM14.0007 4.00004H13.334H10.6673V2.88537C10.6673 2.02937 9.91998 1.33337 9.00065 1.33337H7.00065C6.08132 1.33337 5.33398 2.02937 5.33398 2.88537V4.00004H2.66732H2.00065C1.63398 4.00004 1.33398 4.30004 1.33398 4.66671C1.33398 5.03337 1.63398 5.33337 2.00065 5.33337H2.66732V12.6667C2.66732 13.7694 3.56465 14.6667 4.66732 14.6667H11.334C12.4367 14.6667 13.334 13.7694 13.334 12.6667V5.33337H14.0007C14.3673 5.33337 14.6673 5.03337 14.6673 4.66671C14.6673 4.30004 14.3673 4.00004 14.0007 4.00004V4.00004Z" fill="#DA2F2F"/>
<mask id="mask0_48_351" style="mask-type:luminance" maskUnits="userSpaceOnUse" x="1" y="1" width="14" height="14">
<path fill-rule="evenodd" clip-rule="evenodd" d="M10.6673 10.6667C10.6673 11.0334 10.3673 11.3334 10.0007 11.3334C9.63398 11.3334 9.33398 11.0334 9.33398 10.6667V8.00004C9.33398 7.63337 9.63398 7.33337 10.0007 7.33337C10.3673 7.33337 10.6673 7.63337 10.6673 8.00004V10.6667ZM6.66732 2.88537C6.66732 2.78204 6.80998 2.66671 7.00065 2.66671H9.00065C9.19132 2.66671 9.33398 2.78204 9.33398 2.88537V4.00004H6.66732V2.88537ZM6.66732 10.6667C6.66732 11.0334 6.36732 11.3334 6.00065 11.3334C5.63398 11.3334 5.33398 11.0334 5.33398 10.6667V8.00004C5.33398 7.63337 5.63398 7.33337 6.00065 7.33337C6.36732 7.33337 6.66732 7.63337 6.66732 8.00004V10.6667ZM14.0007 4.00004H13.334H10.6673V2.88537C10.6673 2.02937 9.91998 1.33337 9.00065 1.33337H7.00065C6.08132 1.33337 5.33398 2.02937 5.33398 2.88537V4.00004H2.66732H2.00065C1.63398 4.00004 1.33398 4.30004 1.33398 4.66671C1.33398 5.03337 1.63398 5.33337 2.00065 5.33337H2.66732V12.6667C2.66732 13.7694 3.56465 14.6667 4.66732 14.6667H11.334C12.4367 14.6667 13.334 13.7694 13.334 12.6667V5.33337H14.0007C14.3673 5.33337 14.6673 5.03337 14.6673 4.66671C14.6673 4.30004 14.3673 4.00004 14.0007 4.00004V4.00004Z" fill="white"/>
</mask>
<g mask="url(#mask0_48_351)">
<rect width="16" height="16" fill="#DA2F2F"/>
</g>
</svg>
