<svg width="16" height="16" viewBox="0 0 16 16" fill="none" xmlns="http://www.w3.org/2000/svg">
<path fill-rule="evenodd" clip-rule="evenodd" d="M11.9766 4.48582L10.1806 2.68982L8.88193 3.98916L10.6786 5.78582L11.9766 4.48582ZM3.39326 11.9972C3.37326 11.9992 3.35326 11.9998 3.33326 11.9998C3.15726 11.9998 2.98726 11.9305 2.86126 11.8045C2.72193 11.6645 2.65126 11.4698 2.6686 11.2732L2.92126 8.49316C2.94926 8.18849 3.08393 7.90049 3.30126 7.68382L9.2986 1.68649C9.7666 1.21649 10.6153 1.23982 11.1093 1.73249L12.9346 3.55782L12.9353 3.55849C13.4453 4.06916 13.4659 4.88116 12.9806 5.36782L6.9826 11.3658C6.76593 11.5825 6.4786 11.7172 6.17326 11.7452L3.39326 11.9972ZM3.33293 13.3334H12.6663C13.0329 13.3334 13.3329 13.6334 13.3329 14C13.3329 14.3667 13.0329 14.6667 12.6663 14.6667H3.33293C2.96626 14.6667 2.66626 14.3667 2.66626 14C2.66626 13.6334 2.96626 13.3334 3.33293 13.3334Z" fill="#121212"/>
<mask id="mask0_48_350" style="mask-type:luminance" maskUnits="userSpaceOnUse" x="2" y="1" width="12" height="14">
<path fill-rule="evenodd" clip-rule="evenodd" d="M11.9766 4.48582L10.1806 2.68982L8.88193 3.98916L10.6786 5.78582L11.9766 4.48582ZM3.39326 11.9972C3.37326 11.9992 3.35326 11.9998 3.33326 11.9998C3.15726 11.9998 2.98726 11.9305 2.86126 11.8045C2.72193 11.6645 2.65126 11.4698 2.6686 11.2732L2.92126 8.49316C2.94926 8.18849 3.08393 7.90049 3.30126 7.68382L9.2986 1.68649C9.7666 1.21649 10.6153 1.23982 11.1093 1.73249L12.9346 3.55782L12.9353 3.55849C13.4453 4.06916 13.4659 4.88116 12.9806 5.36782L6.9826 11.3658C6.76593 11.5825 6.4786 11.7172 6.17326 11.7452L3.39326 11.9972ZM3.33293 13.3334H12.6663C13.0329 13.3334 13.3329 13.6334 13.3329 14C13.3329 14.3667 13.0329 14.6667 12.6663 14.6667H3.33293C2.96626 14.6667 2.66626 14.3667 2.66626 14C2.66626 13.6334 2.96626 13.3334 3.33293 13.3334Z" fill="white"/>
</mask>
<g mask="url(#mask0_48_350)">
<rect width="16" height="16" fill="#121212"/>
</g>
</svg>
