<svg width="16" height="16" viewBox="0 0 16 16" fill="none" xmlns="http://www.w3.org/2000/svg">
<path fill-rule="evenodd" clip-rule="evenodd" d="M2 8.00008C2 7.26408 2.59733 6.66675 3.33333 6.66675C4.06933 6.66675 4.66667 7.26408 4.66667 8.00008C4.66667 8.73608 4.06933 9.33341 3.33333 9.33341C2.59733 9.33341 2 8.73608 2 8.00008ZM8 6.66675C7.264 6.66675 6.66667 7.26408 6.66667 8.00008C6.66667 8.73608 7.264 9.33342 8 9.33342C8.736 9.33342 9.33333 8.73608 9.33333 8.00008C9.33333 7.26408 8.736 6.66675 8 6.66675ZM12.6667 6.66675C11.9307 6.66675 11.3333 7.26408 11.3333 8.00008C11.3333 8.73608 11.9307 9.33342 12.6667 9.33342C13.4027 9.33342 14 8.73608 14 8.00008C14 7.26408 13.4027 6.66675 12.6667 6.66675Z" fill="#121212"/>
<mask id="mask0_48_386" style="mask-type:luminance" maskUnits="userSpaceOnUse" x="2" y="6" width="12" height="4">
<path fill-rule="evenodd" clip-rule="evenodd" d="M2 8.00008C2 7.26408 2.59733 6.66675 3.33333 6.66675C4.06933 6.66675 4.66667 7.26408 4.66667 8.00008C4.66667 8.73608 4.06933 9.33341 3.33333 9.33341C2.59733 9.33341 2 8.73608 2 8.00008ZM8 6.66675C7.264 6.66675 6.66667 7.26408 6.66667 8.00008C6.66667 8.73608 7.264 9.33342 8 9.33342C8.736 9.33342 9.33333 8.73608 9.33333 8.00008C9.33333 7.26408 8.736 6.66675 8 6.66675ZM12.6667 6.66675C11.9307 6.66675 11.3333 7.26408 11.3333 8.00008C11.3333 8.73608 11.9307 9.33342 12.6667 9.33342C13.4027 9.33342 14 8.73608 14 8.00008C14 7.26408 13.4027 6.66675 12.6667 6.66675Z" fill="white"/>
</mask>
<g mask="url(#mask0_48_386)">
<rect width="16" height="16" fill="#121212"/>
</g>
</svg>
