<svg width="18" height="19" viewBox="0 0 18 19" fill="none" xmlns="http://www.w3.org/2000/svg">
<path fill-rule="evenodd" clip-rule="evenodd" d="M14.25 8.68176H9.75V4.18176C9.75 3.76701 9.414 3.43176 9 3.43176C8.586 3.43176 8.25 3.76701 8.25 4.18176V8.68176H3.75C3.336 8.68176 3 9.01701 3 9.43176C3 9.84651 3.336 10.1818 3.75 10.1818H8.25V14.6818C8.25 15.0965 8.586 15.4318 9 15.4318C9.414 15.4318 9.75 15.0965 9.75 14.6818V10.1818H14.25C14.664 10.1818 15 9.84651 15 9.43176C15 9.01701 14.664 8.68176 14.25 8.68176" fill="#7B1984"/>
<mask id="mask0_48_272" style="mask-type:luminance" maskUnits="userSpaceOnUse" x="3" y="3" width="12" height="13">
<path fill-rule="evenodd" clip-rule="evenodd" d="M14.25 8.68176H9.75V4.18176C9.75 3.76701 9.414 3.43176 9 3.43176C8.586 3.43176 8.25 3.76701 8.25 4.18176V8.68176H3.75C3.336 8.68176 3 9.01701 3 9.43176C3 9.84651 3.336 10.1818 3.75 10.1818H8.25V14.6818C8.25 15.0965 8.586 15.4318 9 15.4318C9.414 15.4318 9.75 15.0965 9.75 14.6818V10.1818H14.25C14.664 10.1818 15 9.84651 15 9.43176C15 9.01701 14.664 8.68176 14.25 8.68176" fill="white"/>
</mask>
<g mask="url(#mask0_48_272)">
<rect y="0.431763" width="18" height="18" fill="#7B1984"/>
</g>
</svg>
