<svg width="60" height="60" viewBox="0 0 60 60" fill="none" xmlns="http://www.w3.org/2000/svg">
<g clip-path="url(#clip0_14_20)">
<path d="M29.9664 35.7081C23.366 35.7081 17.9965 30.3386 17.9965 23.7381C17.9965 17.1377 23.366 11.7682 29.9664 11.7682C36.5662 11.7682 41.9363 17.1377 41.9363 23.7381C41.9363 30.3386 36.5662 35.7081 29.9664 35.7081Z" fill="#C500FF"/>
<path d="M29.9664 0.329712C13.6247 0.329712 0.329712 13.6247 0.329712 29.9664C0.329712 46.3081 13.6247 59.6032 29.9664 59.6032C46.3081 59.6032 59.6032 46.3081 59.6032 29.9664C59.6032 13.6247 46.3081 0.329712 29.9664 0.329712ZM49.6064 46.4945C47.273 43.0349 44.0366 40.1931 40.2813 38.3721C38.7922 37.6502 37.0536 37.6608 35.5085 38.403C33.7711 39.2381 31.906 39.6609 29.9664 39.6609C28.0269 39.6609 26.1624 39.2375 24.4244 38.403C22.8813 37.6621 21.1419 37.6502 19.6515 38.3721C15.8962 40.1931 12.6599 43.0349 10.3258 46.4945C6.55803 42.024 4.28127 36.2573 4.28127 29.9664C4.28127 15.8034 15.8034 4.28127 29.9664 4.28127C44.1295 4.28127 55.6516 15.8034 55.6516 29.9664C55.6516 36.2573 53.3748 42.024 49.6064 46.4945Z" fill="#C500FF"/>
</g>
<defs>
<clipPath id="clip0_14_20">
<rect width="60" height="60" fill="white"/>
</clipPath>
</defs>
</svg>
