<svg width="12" height="11" viewBox="0 0 12 11" fill="none" xmlns="http://www.w3.org/2000/svg">
<path d="M0.0505857 6.70123C0.0179904 6.77983 0 6.86603 0 6.95642C0 7.13383 0.0692938 7.29505 0.182291 7.41449C0.187051 7.41952 0.191887 7.42448 0.1968 7.42936L2.86193 10.0945C3.12228 10.3548 3.54439 10.3548 3.80474 10.0945C4.06509 9.83415 4.06509 9.41202 3.80474 9.15169L2.27614 7.62309H8.66667C10.5076 7.62309 12 6.13069 12 4.28975V1.62309C12 1.25489 11.7015 0.956421 11.3333 0.956421C10.9651 0.956421 10.6667 1.25489 10.6667 1.62309V4.28975C10.6667 5.39435 9.77127 6.28975 8.66667 6.28975H2.27614L3.80474 4.76115C4.06509 4.50082 4.06509 4.0787 3.80474 3.81835C3.54439 3.558 3.12228 3.558 2.86193 3.81835L0.196799 6.48348C0.192193 6.48806 0.187654 6.4927 0.183184 6.49741C0.125237 6.55838 0.0810369 6.62763 0.0505857 6.70123Z" fill="white" fill-opacity="0.8"/>
</svg>
